<svg xmlns="http://www.w3.org/2000/svg" viewBox="0 0 128 48" fill="#fff"><path fill-rule="evenodd" d="M44.13 1.50L46.00 1.63L47.88 3.25L47.88 6.50L32.63 38.50L30.50 40.88L26.75 41.38L23.88 39.75L20.38 32.75L19.50 27.13L6.25 26.38L3.25 25.63L1.38 23.50L1.13 19.50L3.25 16.88L44.00 1.63ZM43.13 5.00L44.25 4.88L44.63 5.75L42.88 10.00L29.88 37.00L28.25 38.38L25.88 37.00L23.13 31.50L23.13 29.50L31.88 18.25L31.75 17.38L19.75 23.88L9.50 23.63L5.50 22.88L4.13 21.50L4.38 20.25L6.00 19.13L43.00 5.13ZM62.13 7.25L66.50 7.13L67.88 8.00L67.88 12.00L67.25 12.63L63.00 12.88L61.88 14.25L62.25 15.88L66.25 15.88L67.88 16.75L67.88 20.50L67.25 21.13L62.75 21.13L61.88 22.00L61.63 37.25L56.00 37.63L55.13 36.50L55.38 22.25L54.00 21.13L51.13 20.75L50.88 17.00L52.00 15.88L54.75 15.88L56.63 10.00L59.25 7.88L62.00 7.38ZM72.13 7.25L76.00 7.13L77.13 8.50L77.13 36.50L76.50 37.63L71.25 37.63L70.63 37.00L70.63 8.25L72.00 7.38ZM80.38 16.00L86.63 16.25L92.25 28.63L98.25 16.13L103.75 15.88L104.63 16.50L93.88 40.25L89.50 44.88L79.88 44.75L81.13 41.00L82.25 39.88L86.75 39.63L88.88 36.50L79.88 17.50L80.25 16.13ZM107.63 16.00L124.50 15.88L125.38 16.50L125.63 20.25L124.88 21.75L115.63 31.25L115.63 32.25L125.50 32.63L126.13 33.50L125.50 37.63L107.00 37.63L106.13 36.75L106.13 33.75L107.13 32.00L116.13 22.00L115.50 21.13L107.25 21.13L106.63 20.50L106.63 16.75L107.50 16.13Z"></path></svg>