<svg xmlns="http://www.w3.org/2000/svg" viewBox="0 0 78 48" fill="#fff"><path fill-rule="evenodd" d="M11.69 7.38L16.88 7.31L17.94 8.25L17.81 12.25L13.13 12.94L11.94 14.50L12.75 16.06L17.50 16.31L17.94 20.50L17.38 21.19L12.63 21.31L11.94 22.00L11.69 37.38L6.13 37.69L5.31 36.88L5.44 22.38L4.38 21.31L1.19 20.88L1.06 16.63L4.88 15.81L7.06 9.63L9.38 7.94L11.63 7.44ZM21.56 7.38L26.38 7.31L27.06 8.25L27.06 37.13L26.50 37.69L21.38 37.69L20.56 36.25L20.69 8.38L21.50 7.44ZM30.19 16.13L36.69 16.38L42.25 28.69L48.06 16.38L54.56 16.38L44.19 39.75L42.44 42.63L39.38 44.94L30.63 45.31L29.81 44.63L32.00 40.19L36.50 39.81L38.81 36.75L30.06 17.88L30.13 16.19ZM57.44 16.13L74.75 16.06L75.44 16.63L75.06 21.63L65.69 31.38L65.69 32.25L75.50 32.69L76.19 33.75L75.50 37.69L57.13 37.69L56.44 37.13L56.31 33.50L57.06 32.25L66.06 22.38L65.13 21.19L57.13 21.06L56.69 17.13L57.38 16.19Z"></path></svg>